{"accessors" : [{"bufferView" : 0, "byteOffset" : 0, "componentType" : 5123, "count" : 3732, "type" : "SCALAR", "max" : [3123], "min" : [0]}, {"bufferView" : 1, "byteOffset" : 0, "componentType" : 5126, "count" : 3124, "type" : "VEC3", "max" : [-21.459997177124023, 0, 28.01959991455078], "min" : [-149.01011657714844, -15, -130.39825439453125], "name" : "POSITION"}, {"bufferView" : 1, "byteOffset" : 12, "componentType" : 5126, "count" : 3124, "type" : "VEC2", "max" : [7.927700996398926, 6.435038089752197], "min" : [-7.90219783782959, -6.318813800811768], "name" : "TEXCOORD_0"}, {"bufferView" : 1, "byteOffset" : 20, "componentType" : 5126, "count" : 3124, "type" : "VEC3", "max" : [1.0000044107437134, 1.0000044107437134, 1.0000044107437134], "min" : [-1.0000044107437134, -1.0000044107437134, -1.0000044107437134], "name" : "NORMAL"}], "asset" : {"generator" : "Aspose.3D 23.9.0", "version" : "2.0"}, "buffers" : [{"uri" : "data:application/octet-stream;base64,", "byteLength" : 126896}], "bufferViews" : [{"buffer" : 0, "byteOffset" : 0, "byteLength" : 7464, "target" : 34963}, {"buffer" : 0, "byteOffset" : 7468, "byteLength" : 119424, "byteStride" : 32, "target" : 34962}], "materials" : [{"name" : "191,191,191", "pbrMetallicRoughness" : {"baseColorFactor" : [0.74902, 0.74902, 0.74902, 1], "metallicFactor" : 0, "roughnessFactor" : 0}, "emissiveFactor" : [0, 0, 0], "alphaMode" : "OPAQUE", "doubleSided" : false}], "meshes" : [{"primitives" : [{"attributes" : {"POSITION" : 1, "TEXCOORD_0" : 2, "NORMAL" : 3}, "indices" : 0, "material" : 0, "mode" : 4}], "name" : ""}], "nodes" : [{"mesh" : 0, "name" : "Solido1"}], "scene" : 0, "scenes" : [{"nodes" : [0]}]}